<svg xmlns="http://www.w3.org/2000/svg" viewBox="0 0 538.97 544.31"><defs><style>.cls-1{fill:#d5992b;}.cls-2{fill:#c2631c;}.cls-3{fill:#b53b26;}.cls-4{fill:#a82227;}.cls-5{fill:#3b78b0;}.cls-6{fill:#1e5595;}.cls-7{fill:#013c85;}.cls-8{fill:#003069;}</style></defs><title>Ativo 1</title><g id="Camada_2" data-name="Camada 2"><g id="Camada_1-2" data-name="Camada 1"><path class="cls-1" d="M536.87,0H361.8a1.58,1.58,0,0,0-1.58,1.58v179a1.56,1.56,0,0,0,1.5,1.57c13.89.51,92.49.5,142.59-63.66C541.72,70.58,539.71,17,538.44,1.44A1.56,1.56,0,0,0,536.87,0Z"/><polygon class="cls-2" points="178.11 182.25 361.8 182.18 361.88 0 178.11 0 178.11 182.25"/><path class="cls-3" d="M178.11,0V182.25H0C.21,167.77,2.68,109.8,48,60,98.89,4.25,165.63.47,178.11,0Z"/><path class="cls-4" d="M178.11,182.25v180c-11.84,0-75.08-1-126.07-52C.2,258.34-.13,193.77,0,182.25Z"/><path class="cls-5" d="M360.22,362.21H539c-.19-14.53-2.6-71.2-46.68-120.07-50.82-56.36-118.48-59.6-130.49-60Q361,272.2,360.22,362.21Z"/><path class="cls-6" d="M361.88,544.31l-1.66-182.1H539c-.38,18.05-3.85,64.36-36.67,108.06C452.14,537.06,374.15,543.5,361.88,544.31Z"/><polygon class="cls-7" points="178.11 362.21 178.11 544.31 361.88 544.31 360.22 362.21 178.11 362.21"/><path class="cls-8" d="M1.92,544.31H176.28a1.83,1.83,0,0,0,1.83-1.83V364.16a1.83,1.83,0,0,0-1.94-1.83C158.84,363.51,102.93,370,56,416.24,6.28,465.34.87,525.51.09,542.4A1.82,1.82,0,0,0,1.92,544.31Z"/></g></g></svg>